<svg id="Layer_1" data-name="Layer 1" xmlns="http://www.w3.org/2000/svg" viewBox="0 0 255.6 47.5">
  <title>Logo for the Ohio Department of Higher Education: Ohio Higher Ed</title>
  <circle cx="17" cy="16.5" r="14.3" fill="#6caddf"/>
  <path d="M16.5.6A15.7,15.7,0,1,0,32.1,16.4v-.1A15.64,15.64,0,0,0,16.5.6h0m0,28.8A13,13,0,0,1,3.7,16.3,13,13,0,0,1,16.5,3.1,13,13,0,0,1,29.3,16.2,13,13,0,0,1,16.5,29.4Z" fill="#f20017"/>
  <path d="M19.2,15.1c-.7,0-1.5-.1-2.2-.1a16.3,16.3,0,0,0-6.2,1.2h0v3.6A8.93,8.93,0,0,1,17,17.6a9.17,9.17,0,0,1,6.3,2.2V16.2h0A20.78,20.78,0,0,0,19.2,15.1ZM17,9.7,5.5,15.1l1.8.9v3.1a.81.81,0,0,0-.4.9c.1.1.1.2.3.3l-.8,1.9a2.55,2.55,0,0,0,2.4,0L8,20.4a.78.78,0,0,0,.2-1l-.3-.3V16.3L10,17.4V15.7l.3-.1h0a17.23,17.23,0,0,1,6.8-1.4,18.41,18.41,0,0,1,4.1.5,11.42,11.42,0,0,1,2.6.9h0l.3.1v1.6l4.2-2.2h.1Z" fill="#fff"/>
  <g>
    <path d="M90.3,25.5h3V8.5h-3V5h11.5V8.5H98.3V15h10.3V8.5h-3.5V5h11.5V8.5h-3v17h3V29H105.1V25.5h3.5v-7H98.3v7h3.5V29H90.3Z" fill="#525051"/>
    <path d="M118.7,25.7H121V15.1h-2.4V11.8h7.3V25.6h2.4V29h-9.6Zm7.2-16.3h-5.1V4.5h5.1Z" fill="#525051"/>
    <path d="M150.6,15.1h-2.4V27.4c0,4.4-2.2,8.3-9.1,8.3-5.1,0-7.7-1.6-8-5.7h5.3a2.31,2.31,0,0,0,1.1,2,5.22,5.22,0,0,0,2.1.4c2.2,0,3.7-2.1,3.7-4.3v-2a6.47,6.47,0,0,1-5.8,2.5c-4.6,0-7.3-4-7.3-8.3,0-5.1,2.3-9,7.8-9a6.21,6.21,0,0,1,5.6,3.1h.1V11.7h6.8ZM139.4,25.3c3,0,4.2-2.4,4.2-5.2s-1.1-5.2-4.1-5.2-4.2,2.6-4.2,5.4S136.7,25.3,139.4,25.3Z" fill="#525051"/>
    <path d="M151.8,25.7h2.4V7.8h-2.4V4.5h7.3v9.8h.1a5.46,5.46,0,0,1,5.4-3c4,0,6.1,2.1,6.1,6.3v8.1h2.4V29h-9.4V25.7h2.2V18.4c0-3-1.6-3.6-2.7-3.6-2.9,0-4,2.8-4,4.2v6.7h2.2V29H152V25.7Z" fill="#525051"/>
    <path d="M179.7,21.8c0,2.7,1.6,4.4,4.3,4.4a3.09,3.09,0,0,0,3.4-2.5H192c-.8,4.1-4.2,5.8-8.1,5.8-6,0-9.2-3.6-9.2-9.3,0-5.4,3.7-8.9,9.1-8.9,4.1,0,7.5,2.4,8.2,6.6a17,17,0,0,1,.2,3.9Zm7.6-3.1c0-2.5-1.2-4.1-3.8-4.1s-3.8,1.8-3.8,4.1Z" fill="#525051"/>
    <path d="M194.9,25.7h2.4V15.1h-2.4V11.8h6.9v3.3h.1c1-2.2,2.8-3.9,5.3-3.9a14.92,14.92,0,0,1,2.1.2v4a8.2,8.2,0,0,0-2.2-.2c-3.2,0-4.7,2.4-4.9,5.3v5h2.9V29H194.9V25.7Z" fill="#525051"/>
    <path d="M210.6,26.6h3.7V7.4h-3.7V5h20.9v7.3h-2.8V7.4H217.5v8.4h5.4V12.4h2.8v9.2h-2.8V18.2h-5.4v8.6h11.2V21.7h2.8V29H210.6Z" fill="#525051"/>
    <path d="M248.8,25.8h0a6.58,6.58,0,0,1-6,3.5c-5.6,0-8.1-3.7-8.1-8.7s3.1-8.7,8.1-8.7c2.4,0,5,1.2,5.9,3.4h.1v-8h-3V5h6V26.6h2.9V29h-5.9Zm-5.4-11.5c-3.8,0-5.5,2.8-5.5,6.4,0,3.3,1.7,6.4,5.5,6.4s5.4-3.1,5.4-6.4C248.8,17.1,247.1,14.3,243.4,14.3Z" fill="#525051"/>
  </g>
  <path d="M64.7,1.2V6.4H59.1V1.2Zm0,5.1V25.8h2v3.5H57.2V25.8h2v-12h-2V10.3h7.5Zm13.8,3.8a9.69,9.69,0,0,0-9.7,9.6v.1A9.7,9.7,0,1,0,78.6,10Zm0,14.8c-2.8,0-4.5-2.4-4.5-5.1s1.6-5.1,4.5-5.1S83,17.1,83,19.8,81.3,24.9,78.5,24.9Zm-25.6.9h2v3.5H45.6V25.8h1.8V18.5c-.1-1.5-.6-3.7-3.2-3.7-3.2,0-3.4,2.9-3.4,3.8v7.2h1.8v3.5H33.3V25.8h2V4.7h-2V1.2h7.5V12.3a6,6,0,0,1,5.1-2.4A7.4,7.4,0,0,1,51.2,12c1.6,1.8,1.8,3.5,1.8,6.8v7Z" fill="#700017"/>
  <g>
    <path d="M91.2,37h2.3a3.58,3.58,0,0,1,3.1,1,4.45,4.45,0,0,1,1,2.9,3.89,3.89,0,0,1-1.3,3.2,4.16,4.16,0,0,1-2.9.6H91.2Zm1.1,6.9h1.1a3.44,3.44,0,0,0,2-.4,2.88,2.88,0,0,0,1-2.5,3.49,3.49,0,0,0-.8-2.4,2.58,2.58,0,0,0-2.1-.7H92.3Z" fill="#525051"/>
    <path d="M99.6,42.3c0,1.1.4,2,1.6,2a1.21,1.21,0,0,0,1.3-1.1h1a1.61,1.61,0,0,1-.5,1.1,2.28,2.28,0,0,1-1.9.7c-1.7,0-2.5-1.1-2.5-2.8a2.71,2.71,0,0,1,1.1-2.5,2.6,2.6,0,0,1,1.5-.4c2.4,0,2.4,2.1,2.3,3Zm2.8-.7c0-.5-.1-1.6-1.3-1.6a1.45,1.45,0,0,0-1.5,1.4v.2Z" fill="#525051"/>
    <path d="M104.9,40.3v-.9h1v.9a2.23,2.23,0,0,1,1.8-1c1.2,0,2.3.8,2.3,2.8s-1.1,2.9-2.4,2.9a2.14,2.14,0,0,1-1.7-.8v2.7h-1Zm2.5,4a1.43,1.43,0,0,0,1.1-.5,2.54,2.54,0,0,0,.4-1.7c0-1-.3-2-1.5-2-1.6,0-1.6,1.7-1.6,2.2s.2,2,1.6,2Z" fill="#525051"/>
    <path d="M114.8,44.8a2.2,2.2,0,0,1-.1-.8,1.94,1.94,0,0,1-1.7,1c-1.2,0-1.9-.7-1.9-1.6a1.89,1.89,0,0,1,.9-1.6,4.06,4.06,0,0,1,1.9-.4h.7c0-.7,0-1-.2-1.2a1.49,1.49,0,0,0-.9-.4c-1,0-1.1.7-1.1.9h-1a1.78,1.78,0,0,1,.4-1,2.79,2.79,0,0,1,1.8-.6,2,2,0,0,1,1.9.8,2.35,2.35,0,0,1,.2.8v2.6a6.6,6.6,0,0,0,.1,1.4Zm-.7-2.7c-.4,0-2,0-2,1.1,0,.3.2.9,1.1.9a1.43,1.43,0,0,0,1.2-.6,3.19,3.19,0,0,0,.3-1.4C114.5,42.2,114.3,42.1,114.1,42.1Z" fill="#525051"/>
    <path d="M117.6,40.5a4.1,4.1,0,0,0-.1-1.1h1v1a1.63,1.63,0,0,1,1.3-1.1h.7v1H120c-1.2,0-1.5.7-1.5,1.6v2.8h-1Z" fill="#525051"/>
    <path d="M120.6,39.4h1V38.3l1-.3v1.5h1.2v.7h-1.2v3.2c0,.3,0,.7.7.7h.5v.8c-.3,0-.6.1-.8.1-.9,0-1.4-.3-1.4-1.2V40.2h-1Z" fill="#525051"/>
    <path d="M125,40.1v-.7h1v.8a1.68,1.68,0,0,1,1.7-.9,1.75,1.75,0,0,1,1.8,1,2,2,0,0,1,1.8-1,1.81,1.81,0,0,1,2,1.6v3.9h-1V41.3a1.08,1.08,0,0,0-.2-.8,1.23,1.23,0,0,0-1-.5,1.15,1.15,0,0,0-1.1.6,1.72,1.72,0,0,0-.2,1.2v3h-1V41.3a1.06,1.06,0,0,0-1-1.2h-.3a1.43,1.43,0,0,0-1.2.6,1.39,1.39,0,0,0-.2,1.1v3.1h-1Z" fill="#525051"/>
    <path d="M135.8,42.3c0,1.1.4,2,1.6,2a1.21,1.21,0,0,0,1.3-1.1h1a1.61,1.61,0,0,1-.5,1.1,2.28,2.28,0,0,1-1.9.7c-1.7,0-2.5-1.1-2.5-2.8a2.71,2.71,0,0,1,1.1-2.5,2.6,2.6,0,0,1,1.5-.4c2.4,0,2.4,2.1,2.4,3Zm2.9-.7c0-.5-.1-1.6-1.3-1.6a1.45,1.45,0,0,0-1.5,1.4v.2Z" fill="#525051"/>
    <path d="M141.2,40v-.6h1v.9a1.62,1.62,0,0,1,1.7-1,1.81,1.81,0,0,1,2,1.6v4h-1V41.5a1.4,1.4,0,0,0-.3-.9,1.28,1.28,0,0,0-1-.4,1.45,1.45,0,0,0-1.4,1.5V45h-1Z" fill="#525051"/>
    <path d="M146.9,39.4h1V38.3l1-.3v1.5h1.2v.7h-1.2v3.2c0,.3,0,.7.7.7h.5v.8c-.3,0-.6.1-.8.1-.9,0-1.4-.3-1.4-1.2V40.2h-1Z" fill="#525051"/>
    <path d="M156.7,39.3a2.56,2.56,0,0,1,2.7,2.4v.4A2.68,2.68,0,0,1,157,45h-.4a2.56,2.56,0,0,1-2.6-2.5v-.4a2.66,2.66,0,0,1,2.3-2.9A.6.6,0,0,1,156.7,39.3Zm0,5c.8,0,1.6-.5,1.6-2.2,0-1.3-.6-2.1-1.6-2.1-.6,0-1.7.4-1.7,2.1a1.94,1.94,0,0,0,1.7,2.2Z" fill="#525051"/>
    <path d="M163.6,37.8H163c-.8,0-.8.4-.8.8v.8h1.3v.7h-1.3v4.7h-1V40.1h-1.1v-.7h1.1v-.6a2,2,0,0,1,.2-1.3,1.68,1.68,0,0,1,1.4-.6,2,2,0,0,1,.8.1Z" fill="#525051"/>
    <path d="M168.6,37v3.3h3.7V37h1.1v7.8h-1.1V41.3h-3.7v3.5h-1.1V37Z" fill="#525051"/>
    <path d="M175.2,37h1.2v1.1h-1.2Zm.1,2.3h1v5.5h-1Z" fill="#525051"/>
    <path d="M179.3,45.2c0,.6.3,1.1,1.3,1.1,1.4,0,1.4-1,1.4-2.5a1.92,1.92,0,0,1-1.8.9,2.34,2.34,0,0,1-1.7-.7,3,3,0,0,1-.6-2,2.4,2.4,0,0,1,2.4-2.7,2.14,2.14,0,0,1,1.7.8v-.7h1v4.4a4.09,4.09,0,0,1-.3,2.2,2.51,2.51,0,0,1-2.3,1c-2.2,0-2.2-1-2.3-1.8Zm2.3-1.8a2.82,2.82,0,0,0,.4-1.5,1.48,1.48,0,0,0-.4-1.3,1.66,1.66,0,0,0-1.2-.5c-1.3,0-1.5,1.3-1.5,2s.3,1.9,1.5,1.9A1.43,1.43,0,0,0,181.6,43.4Z" fill="#525051"/>
    <path d="M184.9,37h1v3.2a2.14,2.14,0,0,1,1.8-.9,2,2,0,0,1,1.7.9,2.74,2.74,0,0,1,.2,1.3v3.4h-1V41.7c0-.5,0-1.5-1.2-1.5a1.71,1.71,0,0,0-1.3.7,5.16,5.16,0,0,0-.2,1.1v2.9h-1Z" fill="#525051"/>
    <path d="M192.1,42.3c0,1.1.4,2,1.6,2a1.21,1.21,0,0,0,1.3-1.1h1a1.61,1.61,0,0,1-.5,1.1,2.28,2.28,0,0,1-1.9.7c-1.7,0-2.5-1.1-2.5-2.8a2.71,2.71,0,0,1,1.1-2.5,2.6,2.6,0,0,1,1.5-.4c2.4,0,2.4,2.1,2.4,3Zm2.8-.7c0-.5-.1-1.6-1.3-1.6a1.45,1.45,0,0,0-1.5,1.4v.2Z" fill="#525051"/>
    <path d="M197.5,40.5a4.1,4.1,0,0,0-.1-1.1h1v1a1.63,1.63,0,0,1,1.3-1.1h.7v1H200c-1.2,0-1.5.7-1.5,1.6v2.8h-1Z" fill="#525051"/>
    <path d="M204.5,37h4.9v.9h-3.8v2.4h3.6v.9h-3.6v2.6h3.9v1h-5Z" fill="#525051"/>
    <path d="M215,37h1v7.8h-1v-.9a2.65,2.65,0,0,1-.5.6,2.2,2.2,0,0,1-1.3.4c-.7,0-2.3-.4-2.3-2.8,0-2.1,1.2-3,2.4-3a1.77,1.77,0,0,1,1.7.9Zm-.4,3.5a1.15,1.15,0,0,0-1.2-.5c-1.5,0-1.5,1.8-1.5,2.2,0,1,.3,2.1,1.5,2.1,1.6,0,1.6-1.7,1.6-2.2a2.73,2.73,0,0,0-.4-1.6Z" fill="#525051"/>
    <path d="M218.7,39.4v3.5c0,.5.1,1.2,1.1,1.2a1.61,1.61,0,0,0,1.3-.6,1.23,1.23,0,0,0,.2-1V39.4h1v5.4h-1.1v-.9a1.62,1.62,0,0,1-1.7,1,1.77,1.77,0,0,1-2-1.4v-4h1.2Z" fill="#525051"/>
    <path d="M227.4,41.1a1,1,0,0,0-1-1.1h-.1c-1.4,0-1.4,1.6-1.4,2,0,1.1.3,2.1,1.4,2.1a1.28,1.28,0,0,0,1.2-1.1v-.1h1a1.89,1.89,0,0,1-2.1,1.9h-.1a2.41,2.41,0,0,1-1.8-.7,2.63,2.63,0,0,1-.6-2.1c0-2.3,1.4-2.9,2.5-2.9a2.34,2.34,0,0,1,1.7.7,1.75,1.75,0,0,1,.4,1.2Z" fill="#525051"/>
    <path d="M233,44.8a2.2,2.2,0,0,1-.1-.8,1.94,1.94,0,0,1-1.7,1c-1.2,0-1.9-.7-1.9-1.6a1.89,1.89,0,0,1,.9-1.6,4.06,4.06,0,0,1,1.9-.4h.7c0-.7,0-1-.2-1.2a1.49,1.49,0,0,0-.9-.4c-1,0-1.1.7-1.1.9h-1a1.78,1.78,0,0,1,.4-1,2.79,2.79,0,0,1,1.8-.6,2,2,0,0,1,1.9.8,2.35,2.35,0,0,1,.2.8v2.6c0,.5.1.9.1,1.4h-1Zm-.7-2.7c-.4,0-1.9,0-1.9,1.1,0,.3.2.9,1.1.9a1.15,1.15,0,0,0,1.1-.6,3.19,3.19,0,0,0,.3-1.4c-.2.1-.4,0-.6,0Z" fill="#525051"/>
    <path d="M234.9,39.4h1V38.3l1-.3v1.5h1.2v.7h-1.2v3.2c0,.3,0,.7.7.7h.5v.8c-.3,0-.6.1-.8.1-.9,0-1.4-.3-1.4-1.2V40.2h-1Z" fill="#525051"/>
    <path d="M239.2,37h1.2v1.1h-1.2Zm.1,2.3h1v5.5h-1Z" fill="#525051"/>
    <path d="M244.7,39.3a2.56,2.56,0,0,1,2.7,2.4v.4A2.68,2.68,0,0,1,245,45h-.4a2.56,2.56,0,0,1-2.7-2.4v-.4a2.66,2.66,0,0,1,2.3-2.9A.45.45,0,0,1,244.7,39.3Zm-.1,5c.8,0,1.6-.5,1.6-2.2,0-1.3-.6-2.1-1.6-2.1-.6,0-1.7.4-1.7,2.1.1,1.1.5,2.1,1.7,2.2Z" fill="#525051"/>
    <path d="M248.9,40v-.6h1v.9a1.62,1.62,0,0,1,1.7-1,1.81,1.81,0,0,1,2,1.6v4h-1V41.5a1.4,1.4,0,0,0-.3-.9,1.28,1.28,0,0,0-1-.4,1.45,1.45,0,0,0-1.4,1.5V45h-1Z" fill="#525051"/>
  </g>
</svg>

